<?xml version="1.0" standalone="no"?>
<!DOCTYPE svg PUBLIC "-//W3C//DTD SVG 20010904//EN"
 "http://www.w3.org/TR/2001/REC-SVG-20010904/DTD/svg10.dtd">
<svg version="1.0" xmlns="http://www.w3.org/2000/svg"
 width="32.000000pt" height="32.000000pt" viewBox="0 0 32.000000 32.000000"
 preserveAspectRatio="xMidYMid meet">

<g transform="translate(0.000000,32.000000) scale(0.100000,-0.100000)"
fill="#000000" stroke="none">
<path d="M57 257 c-3 -7 8 -22 24 -33 16 -10 29 -22 29 -25 0 -13 -29 -18 -58
-9 -44 12 -74 -22 -32 -35 11 -3 20 -15 20 -25 0 -29 12 -30 59 -9 24 10 45
19 48 19 3 0 2 -21 -2 -46 -6 -41 -5 -45 12 -42 12 2 25 24 39 63 19 54 26 62
70 85 34 17 49 31 49 45 0 28 -28 30 -89 5 l-52 -21 -48 21 c-56 24 -62 24
-69 7z m248 -7 c7 -12 -40 -43 -68 -45 -17 -1 -26 -16 -45 -73 -13 -40 -27
-72 -30 -72 -4 0 -6 28 -5 62 1 35 0 57 -3 50 -6 -13 -76 -52 -93 -52 -6 0 -8
7 -4 16 4 10 -1 17 -16 21 -34 9 -25 26 11 21 25 -4 55 5 123 37 93 45 120 52
130 35z m-176 -13 c17 -7 28 -16 24 -20 -12 -12 -37 -7 -63 13 -30 24 -10 27
39 7z"/>
</g>
</svg>
