<?xml version="1.0" encoding="UTF-8"?>
<svg version="1.1" xmlns="http://www.w3.org/2000/svg" width="512" height="512">
<path d="M0 0 C0.86882309 -0.00979385 1.73764618 -0.01958771 2.63279724 -0.02967834 C68.81356114 -0.62162718 127.96130138 20.62271875 175.80639648 67.14624023 C218.47537728 109.41603746 241.14940291 167.66721882 242.6640625 227.23828125 C242.64892694 237.95123126 242.12181674 248.62284012 240.6640625 259.23828125 C241.22794678 259.47909424 241.79183105 259.71990723 242.37280273 259.96801758 C247.19077507 262.63907886 250.85640436 267.0611244 254.7265625 270.92578125 C255.63728516 271.81201172 256.54800781 272.69824219 257.48632812 273.61132812 C262.85433456 278.95559982 266.72951501 283.01681868 268.08984375 290.6171875 C267.66062453 298.89075795 262.74130313 304.376089 257.86621094 310.68164062 C253.00074956 316.85622052 253.00074956 316.85622052 251.1015625 324.30078125 C251.78838281 329.10852345 252.81902214 331.31673913 255.6640625 335.23828125 C259.14027736 337.71042853 261.98686851 338.70086858 266.19140625 339.265625 C267.23103516 339.41837891 268.27066406 339.57113281 269.34179688 339.72851562 C271.51061635 340.02609481 273.67989044 340.32037964 275.84960938 340.61132812 C283.13486443 341.68945565 287.948701 342.92207115 292.7890625 348.83349609 C295.14365163 353.10916016 295.22873195 356.17179625 295.16015625 360.9609375 C295.16161148 361.78403915 295.16306671 362.60714081 295.16456604 363.45518494 C295.16291289 365.18736325 295.1514173 366.91955714 295.13061523 368.65161133 C295.10161085 371.29637224 295.11002773 373.93913203 295.12304688 376.58398438 C295.11681004 378.27214511 295.10841952 379.96029955 295.09765625 381.6484375 C295.10059189 382.43501236 295.10352753 383.22158722 295.10655212 384.03199768 C295.0281473 388.61262612 294.50324251 391.59968352 291.6640625 395.23828125 C287.0831976 399.03442991 283.05910471 400.0601526 277.3515625 400.86328125 C275.83840703 401.1072393 274.32538445 401.35202308 272.8125 401.59765625 C271.42985495 401.81227948 270.04705894 402.0259341 268.6640625 402.23828125 C261.38451887 403.37632311 256.8451269 405.04506 252.2890625 411.05078125 C250.95756868 415.71100961 250.98082057 419.61444292 252.8359375 424.0234375 C255.42062092 428.5687248 258.55323349 432.61258178 261.72460938 436.75976562 C266.01963635 442.47290705 268.41506196 446.85345326 267.6640625 454.23828125 C264.71168457 461.63518488 260.04812092 466.45839648 254.4140625 471.98828125 C253.59292969 472.82488281 252.77179688 473.66148437 251.92578125 474.5234375 C246.31185645 480.10177482 241.2469823 484.58357842 233.1640625 485.73828125 C225.65536867 484.6656107 219.7468102 480.06947365 213.8515625 475.55078125 C212.55607409 474.56416791 211.25799738 473.5809415 209.95703125 472.6015625 C209.3952417 472.17141846 208.83345215 471.74127441 208.25463867 471.2980957 C204.43329027 468.75189871 200.09122508 468.62619248 195.6640625 469.23828125 C191.70626264 471.32919438 188.99378517 473.43179448 186.6640625 477.23828125 C186.02601807 479.80747347 185.51751805 482.26059664 185.1015625 484.86328125 C184.84896691 486.30078276 184.59636275 487.73828276 184.34375 489.17578125 C183.94266752 491.54931044 183.55384799 493.92406042 183.171875 496.30078125 C182.11916397 502.3584868 180.62993391 506.93172226 175.56420898 510.87133789 C171.73509955 512.6761349 168.22324849 512.68735992 164.07421875 512.671875 C163.25207382 512.67711685 162.42992889 512.6823587 161.58287048 512.6877594 C159.84895962 512.69416526 158.11500521 512.69286121 156.38110352 512.68432617 C153.73830216 512.67581904 151.09766604 512.7045905 148.45507812 512.73632812 C146.76562564 512.73794049 145.07616936 512.73736192 143.38671875 512.734375 C142.60216812 512.74560898 141.81761749 512.75684296 141.0092926 512.76841736 C135.77195159 512.70239822 132.84111494 511.65858428 128.6640625 508.23828125 C123.28034773 502.25637595 123.24095994 494.66116162 122.2421875 487.00390625 C121.38433874 481.05812694 120.6391249 476.8353954 116.6640625 472.23828125 C112.97017461 469.71972132 109.44816474 468.50990625 104.921875 468.69921875 C98.85154009 470.14853747 93.67392999 474.64947539 88.8671875 478.44921875 C83.67485946 482.51214211 79.80451967 485.10028184 73.1484375 485.59375 C66.76828492 484.68086653 62.61806642 481.69454356 58.16796875 477.203125 C57.68956039 476.7238002 57.21115204 476.2444754 56.71824646 475.75062561 C55.71957009 474.74595499 54.72570935 473.7364759 53.73657227 472.72241211 C52.21674988 471.16573065 50.68117421 469.62599772 49.14257812 468.08789062 C41.6640625 460.53379634 41.6640625 460.53379634 41.6640625 458.23828125 C39.99923828 458.46644531 39.99923828 458.46644531 38.30078125 458.69921875 C-19.23141804 465.84497798 -80.09419817 449.43374358 -126.1484375 414.23828125 C-128.22664809 412.58677549 -130.28848958 410.92661683 -132.3359375 409.23828125 C-132.89587402 408.7798584 -133.45581055 408.32143555 -134.03271484 407.84912109 C-180.83836328 369.31173154 -210.6031554 313.97954309 -217.12452698 253.64489746 C-217.46827326 249.73182177 -217.53741276 245.82874838 -217.57421875 241.90234375 C-217.5840126 241.03352066 -217.59380646 240.16469757 -217.60389709 239.26954651 C-218.09121732 184.78641743 -204.90182812 134.05851727 -171.3359375 90.23828125 C-170.71332031 89.42230469 -170.09070313 88.60632813 -169.44921875 87.765625 C-164.10444972 80.92475429 -158.29980324 74.53668516 -152.3359375 68.23828125 C-151.459375 67.30757813 -150.5828125 66.376875 -149.6796875 65.41796875 C-142.75798233 58.27232606 -135.27970243 52.19902459 -127.3359375 46.23828125 C-125.91087891 45.15546875 -125.91087891 45.15546875 -124.45703125 44.05078125 C-89.2906487 17.84235641 -44.16689383 0.41401907 0 0 Z " fill="#3B97D2" transform="translate(217.3359375,-0.23828125)"/>
<path d="M0 0 C39.08250088 13.77261563 70.34539259 62.1359278 87.69677734 97.24609375 C106.10045499 136.13584344 112.84384342 181.44483256 107 224 C107.56388428 224.24081299 108.12776855 224.48162598 108.70874023 224.72973633 C113.52671257 227.40079761 117.19234186 231.82284315 121.0625 235.6875 C121.97322266 236.57373047 122.88394531 237.45996094 123.82226562 238.37304688 C129.19027206 243.71731857 133.06545251 247.77853743 134.42578125 255.37890625 C133.99656203 263.6524767 129.07724063 269.13780775 124.20214844 275.44335938 C119.33668706 281.61793927 119.33668706 281.61793927 117.4375 289.0625 C118.12432031 293.8702422 119.15495964 296.07845788 122 300 C125.47621486 302.47214728 128.32280601 303.46258733 132.52734375 304.02734375 C133.56697266 304.18009766 134.60660156 304.33285156 135.67773438 304.49023438 C137.84655385 304.78781356 140.01582794 305.08209839 142.18554688 305.37304688 C149.47080193 306.4511744 154.2846385 307.6837899 159.125 313.59521484 C161.47958913 317.87087891 161.56466945 320.933515 161.49609375 325.72265625 C161.49754898 326.5457579 161.49900421 327.36885956 161.50050354 328.21690369 C161.49885039 329.949082 161.4873548 331.68127589 161.46655273 333.41333008 C161.43754835 336.05809099 161.44596523 338.70085078 161.45898438 341.34570312 C161.45274754 343.03386386 161.44435702 344.7220183 161.43359375 346.41015625 C161.43652939 347.19673111 161.43946503 347.98330597 161.44248962 348.79371643 C161.3640848 353.37434487 160.83918001 356.36140227 158 360 C153.4191351 363.79614866 149.39504221 364.82187135 143.6875 365.625 C142.17434453 365.86895805 140.66132195 366.11374183 139.1484375 366.359375 C137.76579245 366.57399823 136.38299644 366.78765285 135 367 C127.72045637 368.13804186 123.1810644 369.80677875 118.625 375.8125 C117.29350618 380.47272836 117.31675807 384.37616167 119.171875 388.78515625 C121.75655842 393.33044355 124.88917099 397.37430053 128.06054688 401.52148438 C132.35557385 407.2346258 134.75099946 411.61517201 134 419 C131.04762207 426.39690363 126.38405842 431.22011523 120.75 436.75 C119.51830078 438.00490234 119.51830078 438.00490234 118.26171875 439.28515625 C112.64779395 444.86349357 107.5829198 449.34529717 99.5 450.5 C91.99130617 449.42732945 86.0827477 444.8311924 80.1875 440.3125 C78.89201159 439.32588666 77.59393488 438.34266025 76.29296875 437.36328125 C75.7311792 436.93313721 75.16938965 436.50299316 74.59057617 436.05981445 C70.76922777 433.51361746 66.42716258 433.38791123 62 434 C58.04220014 436.09091313 55.32972267 438.19351323 53 442 C52.36195557 444.56919222 51.85345555 447.02231539 51.4375 449.625 C51.18490441 451.06250151 50.93230025 452.50000151 50.6796875 453.9375 C50.27860502 456.31102919 49.88978549 458.68577917 49.5078125 461.0625 C48.45510147 467.12020555 46.96587141 471.69344101 41.90014648 475.63305664 C38.07103705 477.43785365 34.55918599 477.44907867 30.41015625 477.43359375 C29.58801132 477.4388356 28.76586639 477.44407745 27.91880798 477.44947815 C26.18489712 477.45588401 24.45094271 477.45457996 22.71704102 477.44604492 C20.07423966 477.43753779 17.43360354 477.46630925 14.79101562 477.49804688 C13.10156314 477.49965924 11.41210686 477.49908067 9.72265625 477.49609375 C8.93810562 477.50732773 8.15355499 477.51856171 7.3452301 477.53013611 C2.10788909 477.46411697 -0.82294756 476.42030303 -5 473 C-10.38371477 467.0180947 -10.42310256 459.42288037 -11.421875 451.765625 C-12.27972376 445.81984569 -13.0249376 441.59711415 -17 437 C-20.69388789 434.48144007 -24.21589776 433.271625 -28.7421875 433.4609375 C-34.81252241 434.91025622 -39.99013251 439.41119414 -44.796875 443.2109375 C-49.98920304 447.27386086 -53.85954283 449.86200059 -60.515625 450.35546875 C-66.83101313 449.4518519 -71.0044505 446.50103557 -75.42578125 442.0703125 C-75.89944626 441.59810272 -76.37311127 441.12589294 -76.86112976 440.63937378 C-77.85147935 439.64737669 -78.83694445 438.65048076 -79.81762695 437.64892578 C-81.3139836 436.12348757 -82.82826971 434.6177242 -84.34570312 433.11328125 C-94.12672728 423.26907913 -94.12672728 423.26907913 -94.5625 415.875 C-94.40353735 409.4741039 -90.65735274 404.99975187 -87 400 C-86.27039063 398.99710937 -85.54078125 397.99421875 -84.7890625 396.9609375 C-83.4060646 395.06867684 -82.01131533 393.18491303 -80.6015625 391.3125 C-77.5153832 386.85635817 -77.24117117 382.25074664 -78 377 C-80.09834872 372.08817026 -82.90300759 369.64745285 -87.8840332 367.64746094 C-92.88061163 366.11856674 -98.17210053 365.81209322 -103.34960938 365.27148438 C-110.04363958 364.45819099 -114.23974614 363.14097853 -118.8125 357.9375 C-121.34810129 353.80046632 -121.19226367 349.73478595 -121.23828125 345.04296875 C-121.246353 344.26238602 -121.25442474 343.48180328 -121.26274109 342.67756653 C-121.2765632 341.02587086 -121.28729373 339.37414685 -121.29516602 337.72241211 C-121.30668586 336.03775636 -121.32713795 334.35313711 -121.35668945 332.66870117 C-121.39946131 330.23070547 -121.41554771 327.79379354 -121.42578125 325.35546875 C-121.44328934 324.60839157 -121.46079742 323.86131439 -121.47883606 323.09159851 C-121.45744427 317.89560268 -120.29377677 314.98737944 -117 311 C-110.53454607 306.17774573 -103.8421697 305.9639994 -96.00585938 305.22265625 C-89.11661701 304.45875669 -84.8901072 303.28874267 -80.1875 297.9375 C-77.495445 293.54519974 -77.18101878 288.99340003 -78 284 C-79.59390288 280.6827999 -81.75090971 277.90113748 -84 275 C-85.42243731 273.08761206 -86.83898651 271.17083224 -88.25 269.25 C-89.24773437 267.92742187 -89.24773437 267.92742187 -90.265625 266.578125 C-93.50600093 261.76134996 -94.69010592 257.81660701 -94 252 C-90.8339725 245.14574266 -85.4278477 239.97448049 -80.125 234.75 C-78.95904297 233.56664062 -78.95904297 233.56664062 -77.76953125 232.359375 C-67.93256801 222.57200989 -67.93256801 222.57200989 -60.5625 221.5 C-53.0156303 222.55920978 -47.06594106 227.16591684 -41.125 231.6875 C-34.6415594 236.56269415 -31.18791362 238.75941863 -23 238 C-18.30072903 236.31535569 -15.56002759 234.29718917 -13 230 C-11.67347046 225.58383204 -11.12627719 221.05230993 -10.578125 216.484375 C-9.74227186 209.71108229 -9.0017888 204.60250432 -5 199 C-5.6290625 198.93683594 -6.258125 198.87367188 -6.90625 198.80859375 C-14.01229673 197.79191538 -18.27663989 195.42005572 -23 190 C-25.35550386 186.07416023 -25.61285793 182.51982726 -25 178 C-20.97605421 170.73971348 -14.3538165 164.95693926 -8.0625 159.6875 C6.4261224 147.13256222 16.02609905 128.02690603 18 109 C19.48736064 87.21292102 15.0150908 70.53762206 6.41699219 50.7277832 C1.47319393 39.25200324 -2.7573412 28.13738293 -2.375 15.5 C-2.37371094 14.65953125 -2.37242187 13.8190625 -2.37109375 12.953125 C-2.30469931 8.26125104 -1.78822482 4.40618597 0 0 Z " fill="#32465A" transform="translate(351,35)"/>
<path d="M0 0 C-2.1774311 9.19199043 -5.53504682 17.79421652 -9.125 26.5 C-9.41312561 27.20354614 -9.70125122 27.90709229 -9.99810791 28.63195801 C-14.62942427 39.93199785 -19.41142407 51.1336385 -25 62 C-25.59039062 63.15242188 -26.18078125 64.30484375 -26.7890625 65.4921875 C-31.54627218 74.20287738 -37.7786515 82.71206496 -47.33984375 86.421875 C-55.13201419 88.11532761 -63.21742746 87.33713998 -71 86 C-78.79328204 85.36614639 -84.34212737 85.85396114 -91 90 C-92.06541016 90.50853516 -92.06541016 90.50853516 -93.15234375 91.02734375 C-95.61571816 92.3241307 -95.95817696 93.43016983 -97 96 C-97.75410156 97.52753906 -97.75410156 97.52753906 -98.5234375 99.0859375 C-102.57804617 108.60346794 -101.02585963 121.06711964 -97.4375 130.5 C-89.68183271 149.37923195 -75.64245618 163.70563049 -58 173.5625 C-43.31032492 181.83051463 -30.5274751 190.41757469 -25 207 C-23.62763851 223.38991719 -27.71329962 238.57132074 -38.26171875 251.55273438 C-44.47049689 258.78444874 -51.3716818 265.40357519 -58.12792969 272.11621094 C-70.94850981 284.87946035 -80.72738997 299.07487096 -89.13671875 315.046875 C-89.49048584 315.7174292 -89.84425293 316.3879834 -90.20874023 317.07885742 C-90.88241934 318.36224376 -91.55030563 319.64869477 -92.21118164 320.9387207 C-95.10849108 326.49969786 -98.08933264 331.44766637 -104 334 C-108.05213945 334.58821379 -110.45040868 334.90796367 -114 332.828125 C-117.60520502 329.91391761 -119.64245498 327.50782891 -121 323 C-121.45693543 316.65711667 -121.21456282 310.25464959 -120.5 303.9375 C-118.26204544 284.12025024 -122.00996579 266.78141776 -134.50390625 250.9375 C-137.58222736 247.31481224 -140.79245615 243.83545465 -144.03808594 240.36328125 C-151.65322256 232.14992795 -158.85162642 222.76725646 -159.5625 211.1875 C-159.04791752 199.90217396 -152.7827685 190.35276424 -146.203125 181.61328125 C-139.92498477 173.06803483 -136.06280669 164.72219131 -136.49609375 153.91796875 C-138.06663526 144.82343769 -144.75228637 138.17825225 -152 133 C-159.18823976 128.39573651 -166.58312438 124.10638518 -173.98730469 119.86035156 C-175.58358645 118.94273383 -177.16754085 118.00375492 -178.75 117.0625 C-179.59046875 116.57910156 -180.4309375 116.09570312 -181.296875 115.59765625 C-183 114 -183 114 -183.2644043 111.66625977 C-182.96195298 108.61633285 -182.21235519 107.24029049 -180.47265625 104.7421875 C-179.93237793 103.957229 -179.39209961 103.17227051 -178.83544922 102.36352539 C-178.25037598 101.54231201 -177.66530273 100.72109863 -177.0625 99.875 C-176.16942139 98.59967407 -176.16942139 98.59967407 -175.25830078 97.29858398 C-167.62065225 86.48940448 -159.09032459 76.60613285 -150 67 C-149.12472656 66.07058594 -148.24945313 65.14117187 -147.34765625 64.18359375 C-140.42441472 57.0366939 -132.94535305 50.96193501 -125 45 C-123.57494141 43.9171875 -123.57494141 43.9171875 -122.12109375 42.8125 C-88.44961751 17.71818292 -42.71734359 -2.20318678 0 0 Z " fill="#4EB96F" transform="translate(215,1)"/>
<path d="M0 0 C2.46695324 2.9911808 4.16689784 6.14595105 5.90454102 9.58374023 C15.26349568 28.09098444 27.83419038 43.95536615 42 59 C42.65613281 59.71027344 43.31226563 60.42054688 43.98828125 61.15234375 C72.61369904 91.12628229 113.21257562 108.45485517 153.32275391 115.52734375 C155.51448127 115.91428376 157.70141076 116.32831243 159.88671875 116.75 C170.82397822 118.64983759 181.94177165 118.26136932 193 118 C193.83176758 117.98066406 194.66353516 117.96132813 195.52050781 117.94140625 C203.9451152 117.70458388 212.1880098 116.97721307 220.5 115.5625 C221.58740479 115.37917114 221.58740479 115.37917114 222.69677734 115.19213867 C226.77071171 114.4703845 226.77071171 114.4703845 230 112 C230.02187378 113.45237061 230.02187378 113.45237061 230.04418945 114.93408203 C230.10241567 118.54626324 230.17964536 122.15783683 230.26245117 125.76953125 C230.29558667 127.32900081 230.3236537 128.88858702 230.34643555 130.44824219 C230.38019281 132.69776852 230.43251504 134.94623687 230.48828125 137.1953125 C230.49786613 138.23161301 230.49786613 138.23161301 230.50764465 139.28884888 C230.64565211 143.89206987 231.59737317 147.07891878 234 151 C238.96875418 155.46423453 243.99191082 155.86169108 250.375 156.5 C258.75462891 157.34510462 266.26773241 158.50278773 272 165.1875 C274.63750854 169.37175083 274.86372343 173.19501434 274 178 C271.68667509 184.30906794 267.69034692 189.22851706 263.52978516 194.43261719 C259.33991305 199.68544888 257.72772531 202.47536427 257.875 209.25 C257.89304687 210.32765625 257.91109375 211.4053125 257.9296875 212.515625 C257.95289063 213.33546875 257.97609375 214.1553125 258 215 C202.15340933 223.97806226 141.86820305 207.03324953 96.15087891 174.69189453 C92.32994424 171.92217654 88.64080149 169.00222273 85 166 C84.44006348 165.54157715 83.88012695 165.0831543 83.30322266 164.61083984 C38.31928155 127.57335142 6.57444639 72.86949818 0.73876953 14.38183594 C0.35561614 9.59104029 0.12742623 4.80396904 0 0 Z " fill="#297FB9" transform="translate(0,243)"/>
<path d="M0 0 C39.08250088 13.77261563 70.34539259 62.1359278 87.69677734 97.24609375 C105.67741145 135.24188856 113.71915897 181.36418589 107 223 C106.26136719 222.91878906 105.52273438 222.83757812 104.76171875 222.75390625 C92.81118044 222.00984478 85.88465245 228.19659103 77.0703125 235.51953125 C72.7509721 238.60826712 68.57832112 239.57239118 63.34765625 239.44140625 C59.05084731 238.63352038 55.82841607 236.26995613 53 233 C49.52041733 226.50588628 49.0273971 219.88990379 48.27148438 212.65039062 C47.60414648 207.15768642 46.82463718 203.25761497 43 199 C38.24021861 196.02846298 34.12797909 195.56912042 28.64453125 195.63671875 C27.86107834 195.63622025 27.07762543 195.63572174 26.27043152 195.63520813 C24.62402798 195.63753752 22.97762013 195.64719863 21.33129883 195.66381836 C18.8097363 195.68752598 16.28922469 195.68435673 13.76757812 195.67773438 C12.1640562 195.6833081 10.56053871 195.69041606 8.95703125 195.69921875 C8.20388138 195.69830734 7.45073151 195.69739594 6.67475891 195.69645691 C2.91662013 195.74754784 1.20494366 195.86337089 -2 198 C-6.7883476 198.71992639 -11.47205035 198.66446795 -15.8125 196.375 C-20.07848713 193.19642136 -23.27754836 190.16735491 -25 185 C-25.63775704 180.3534844 -25.15345982 177.71999816 -22.4375 174 C-18.09290219 168.71932959 -13.29815596 164.07274609 -8.0625 159.6875 C6.4261224 147.13256222 16.02609905 128.02690603 18 109 C19.48736064 87.21292102 15.0150908 70.53762206 6.41699219 50.7277832 C1.47319393 39.25200324 -2.7573412 28.13738293 -2.375 15.5 C-2.37371094 14.65953125 -2.37242187 13.8190625 -2.37109375 12.953125 C-2.30469931 8.26125104 -1.78822482 4.40618597 0 0 Z " fill="#24AD5F" transform="translate(351,35)"/>
<path d="M0 0 C17.73304344 -0.91094401 35.72284832 6.52879472 48.78125 18.1953125 C49.46703125 18.79988281 50.1528125 19.40445312 50.859375 20.02734375 C64.37550207 32.69226434 71.54466541 50.43111647 72.23657227 68.73535156 C72.57266014 89.12100938 65.7967471 106.24840578 51.78125 121.1953125 C37.61426584 134.8813188 19.74994893 141.88866196 0.17431641 141.59350586 C-17.28271588 140.98368948 -33.19112356 134.99095013 -46.21875 123.1953125 C-46.89035156 122.61523438 -47.56195313 122.03515625 -48.25390625 121.4375 C-61.13988187 109.56949163 -68.08686373 92.05433008 -69.40234375 74.78515625 C-69.9604592 54.59450898 -62.68856511 35.2730761 -48.796875 20.578125 C-34.85467673 7.69215388 -18.62790842 1.63978067 0 0 Z " fill="#3E5B6B" transform="translate(369.21875,299.8046875)"/>
<path d="M0 0 C3.37690221 1.39424959 4.8272498 2.78689572 6.69921875 5.90234375 C7.18173096 6.70027344 7.66424316 7.49820313 8.16137695 8.3203125 C8.66499756 9.18398438 9.16861816 10.04765625 9.6875 10.9375 C10.21496826 11.83339844 10.74243652 12.72929688 11.28588867 13.65234375 C23.71224185 35.08474577 32.20101722 57.68936357 37 82 C37.18691406 82.90202148 37.37382812 83.80404297 37.56640625 84.73339844 C39.53868743 95.54220369 39.39572765 106.42619347 39.375 117.375 C39.37478851 118.3999054 39.37457703 119.42481079 39.37435913 120.48077393 C39.34372726 135.31966475 38.96239898 149.60412096 35 164 C34.79149414 164.76844238 34.58298828 165.53688477 34.36816406 166.32861328 C32.31212582 173.69999543 29.70860698 180.84770736 27 188 C26.09290283 188.02187378 26.09290283 188.02187378 25.16748047 188.04418945 C22.40270735 188.11909188 19.63908643 188.21561073 16.875 188.3125 C15.92367187 188.33505859 14.97234375 188.35761719 13.9921875 188.38085938 C8.50258318 188.59053176 4.86286894 189.25424933 0 192 C-4.80516808 192.82437969 -9.44209818 192.65562453 -13.8125 190.375 C-18.07848713 187.19642136 -21.27754836 184.16735491 -23 179 C-23.63775704 174.3534844 -23.15345982 171.71999816 -20.4375 168 C-16.09290219 162.71932959 -11.29815596 158.07274609 -6.0625 153.6875 C8.4261224 141.13256222 18.02609905 122.02690603 20 103 C21.48736064 81.21292102 17.0150908 64.53762206 8.41699219 44.7277832 C3.38894062 33.05643044 -0.7645468 21.96887978 -0.25 9.125 C-0.23195313 8.23425781 -0.21390625 7.34351563 -0.1953125 6.42578125 C-0.14923893 4.28336033 -0.0775598 2.14151224 0 0 Z " fill="#4EB96F" transform="translate(349,41)"/>
<path d="M0 0 C2.5048111 1.87860833 2.98700625 2.96101874 4 6 C4.0954687 8.31090417 4.12985387 10.62462975 4.125 12.9375 C4.12886719 14.77634766 4.12886719 14.77634766 4.1328125 16.65234375 C4.0243885 19.38526626 3.68099212 21.40175313 3 24 C2.30397075 33.75779469 3.73169984 42.03078905 7.1875 51.125 C8.49078269 55.73661567 8.92578329 60.67727585 7.125 65.1953125 C5.49693965 67.80699265 3.93298547 68.20009487 1 69 C-4.31554044 69.54194756 -6.67543984 68.18766361 -11 65.1875 C-18.05002117 60.66116073 -25.01369918 59.71853747 -33.27148438 59.1003418 C-39.68501702 58.54231848 -43.12723922 57.28212311 -48 53 C-50.49354314 49.2596853 -50.85402537 46.3292972 -50 42 C-46.08605922 34.72655916 -39.22114904 28.88240312 -33.41552734 23.09985352 C-31.7585478 21.44603151 -30.11535646 19.77931953 -28.47265625 18.11132812 C-9.28576504 -1.1904827 -9.28576504 -1.1904827 0 0 Z " fill="#4EB970" transform="translate(298,88)"/>
<path d="M0 0 C4.10488479 2.82780952 7.56757505 6.44765011 9.8125 10.9375 C10.53798568 18.10910434 10.19568689 23.13273898 5.8125 28.9375 C0.62032231 33.74976225 -3.59452633 34.29630996 -10.46484375 34.21484375 C-15.73211946 33.67829199 -18.66085385 30.66819435 -22 26.875 C-25.54024567 22.12095581 -25.99013407 17.69593278 -25.1875 11.9375 C-23.08306222 6.42072619 -19.48921549 2.64185431 -14.3671875 -0.21875 C-9.39410553 -2.14381399 -4.97125785 -1.65708595 0 0 Z " fill="#2C3E50" transform="translate(378.1875,354.0625)"/>
<path d="M0 0 C0.66 0.33 1.32 0.66 2 1 C-7.57 10.57 -17.14 20.14 -27 30 C-27.66 29.67 -28.32 29.34 -29 29 C-19.82854663 18.83512035 -10.5972014 8.71325448 0 0 Z " fill="#44B090" transform="translate(83,51)"/>
<path d="M0 0 C3.63 1.98 7.26 3.96 11 6 C10.34 7.65 9.68 9.3 9 11 C7.33333333 9.33333333 5.66666667 7.66666667 4 6 C3.236875 5.278125 2.47375 4.55625 1.6875 3.8125 C0 2 0 2 0 0 Z " fill="#2782B9" transform="translate(341,28)"/>
</svg>
